<?xml version="1.0" encoding="UTF-8"?>
<svg width="100" height="100" viewBox="0 0 100 100" xmlns="http://www.w3.org/2000/svg">
  <!-- 外圈 -->
  <circle cx="50" cy="50" r="42" fill="#00182e" stroke="#00a0ff" stroke-width="2" />
  
  <!-- 内部圆形 -->
  <circle cx="50" cy="50" r="30" fill="url(#pump-gradient)" />
  
  <!-- 泵叶片 -->
  <g fill="#00c0ff" transform="rotate(0, 50, 50)">
    <path d="M50,50 L70,40 A30,30 0 0,1 60,70 Z" fill-opacity="0.8" />
  </g>
  <g fill="#00c0ff" transform="rotate(120, 50, 50)">
    <path d="M50,50 L70,40 A30,30 0 0,1 60,70 Z" fill-opacity="0.8" />
  </g>
  <g fill="#00c0ff" transform="rotate(240, 50, 50)">
    <path d="M50,50 L70,40 A30,30 0 0,1 60,70 Z" fill-opacity="0.8" />
  </g>
  
  <!-- 中心圆 -->
  <circle cx="50" cy="50" r="10" fill="#001a30" stroke="#00e0ff" stroke-width="1.5" />
  <circle cx="50" cy="50" r="6" fill="#00c0ff" />
  
  <!-- 发光效果 -->
  <circle cx="50" cy="50" r="36" fill="none" stroke="rgba(0,192,255,0.3)" stroke-width="8" filter="blur(4px)" />
  
  <!-- 定义渐变 -->
  <defs>
    <radialGradient id="pump-gradient" cx="50%" cy="50%" r="50%" fx="50%" fy="50%">
      <stop offset="0%" stop-color="#004080" />
      <stop offset="100%" stop-color="#00182e" />
    </radialGradient>
  </defs>
</svg> 